<svg width="180" height="90" viewBox="0 0 180 90" fill="none" xmlns="http://www.w3.org/2000/svg">
<path d="M180 90C180 78.181 177.672 66.4778 173.149 55.5585C168.626 44.6392 161.997 34.7177 153.64 26.3604C145.282 18.0031 135.361 11.3738 124.442 6.85084C113.522 2.32792 101.819 -5.16623e-07 90 0C78.181 5.16624e-07 66.4778 2.32792 55.5585 6.85084C44.6392 11.3738 34.7177 18.0031 26.3604 26.3604C18.0031 34.7177 11.3738 44.6392 6.85084 55.5585C2.32792 66.4778 -1.03325e-06 78.181 0 90L20.5331 90C20.5331 80.8775 22.3299 71.8443 25.8209 63.4162C29.312 54.988 34.4289 47.3301 40.8795 40.8795C47.3301 34.4289 54.988 29.312 63.4162 25.8209C71.8443 22.3299 80.8775 20.5331 90 20.5331C99.1225 20.5331 108.156 22.3299 116.584 25.8209C125.012 29.312 132.67 34.4289 139.121 40.8795C145.571 47.3301 150.688 54.988 154.179 63.4162C157.67 71.8443 159.467 80.8775 159.467 90H180Z" fill="url(#paint0_linear)"/>
<defs>
<linearGradient id="paint0_linear" x1="174" y1="90" x2="7" y2="90" gradientUnits="userSpaceOnUse">
<stop stop-color="#09FF21"/>
<stop offset="0.786458" stop-color="#4F73EB"/>
<stop offset="1" stop-color="#FB7755"/>
</linearGradient>
</defs>
</svg>
