<svg width="150" height="150" viewBox="0 0 150 150" fill="none" xmlns="http://www.w3.org/2000/svg">
<path d="M150 75C150 116.421 116.421 150 75 150C33.5786 150 0 116.421 0 75C0 33.5786 33.5786 0 75 0C116.421 0 150 33.5786 150 75ZM16.7165 75C16.7165 107.189 42.8109 133.283 75 133.283C107.189 133.283 133.283 107.189 133.283 75C133.283 42.8109 107.189 16.7165 75 16.7165C42.8109 16.7165 16.7165 42.8109 16.7165 75Z" fill="#C4C4C4"/>
<path d="M150 75C150 116.421 116.421 150 75 150C33.5786 150 0 116.421 0 75C0 33.5786 33.5786 0 75 0C116.421 0 150 33.5786 150 75ZM16.7165 75C16.7165 107.189 42.8109 133.283 75 133.283C107.189 133.283 133.283 107.189 133.283 75C133.283 42.8109 107.189 16.7165 75 16.7165C42.8109 16.7165 16.7165 42.8109 16.7165 75Z" fill="#4F73EB"/>
</svg>
