<svg width="150" height="150" viewBox="0 0 150 150" fill="none" xmlns="http://www.w3.org/2000/svg">
<path d="M150 75C150 116.421 116.421 150 75 150C33.5786 150 0 116.421 0 75C0 33.5786 33.5786 0 75 0C116.421 0 150 33.5786 150 75ZM16.7165 75C16.7165 107.189 42.8109 133.283 75 133.283C107.189 133.283 133.283 107.189 133.283 75C133.283 42.8109 107.189 16.7165 75 16.7165C42.8109 16.7165 16.7165 42.8109 16.7165 75Z" fill="#C4C4C4"/>
<path d="M150 75C150 116.421 116.421 150 75 150C33.5786 150 0 116.421 0 75C0 33.5786 33.5786 0 75 0C116.421 0 150 33.5786 150 75ZM16.7165 75C16.7165 107.189 42.8109 133.283 75 133.283C107.189 133.283 133.283 107.189 133.283 75C133.283 42.8109 107.189 16.7165 75 16.7165C42.8109 16.7165 16.7165 42.8109 16.7165 75Z" fill="#4F73EB"/>
<path d="M51.8105 71.584L52.4609 65.2031H59.0176V66.7061H53.8408L53.4541 70.1953C54.0811 69.8262 54.793 69.6416 55.5898 69.6416C56.7559 69.6416 57.6816 70.0283 58.3672 70.8018C59.0527 71.5693 59.3955 72.6094 59.3955 73.9219C59.3955 75.2402 59.0381 76.2803 58.3232 77.042C57.6143 77.7979 56.6211 78.1758 55.3438 78.1758C54.2129 78.1758 53.29 77.8623 52.5752 77.2354C51.8604 76.6084 51.4531 75.7412 51.3535 74.6338H52.8916C52.9912 75.3662 53.252 75.9199 53.6738 76.2949C54.0957 76.6641 54.6523 76.8486 55.3438 76.8486C56.0996 76.8486 56.6914 76.5908 57.1191 76.0752C57.5527 75.5596 57.7695 74.8477 57.7695 73.9395C57.7695 73.084 57.5352 72.3984 57.0664 71.8828C56.6035 71.3613 55.9854 71.1006 55.2119 71.1006C54.5029 71.1006 53.9463 71.2559 53.542 71.5664L53.1113 71.918L51.8105 71.584ZM68.9141 75.6182L71.1289 68.4902H72.8691L69.0459 79.4678C68.4541 81.0498 67.5137 81.8408 66.2246 81.8408L65.917 81.8145L65.3105 81.7002V80.3818L65.75 80.417C66.3008 80.417 66.7285 80.3057 67.0332 80.083C67.3438 79.8604 67.5986 79.4531 67.7979 78.8613L68.1582 77.8945L64.7656 68.4902H66.541L68.9141 75.6182ZM78.1514 78.1758C76.8623 78.1758 75.8135 77.7539 75.0049 76.9102C74.1963 76.0605 73.792 74.9268 73.792 73.5088V73.21C73.792 72.2666 73.9707 71.4258 74.3281 70.6875C74.6914 69.9434 75.1953 69.3633 75.8398 68.9473C76.4902 68.5254 77.1934 68.3145 77.9492 68.3145C79.1855 68.3145 80.1465 68.7217 80.832 69.5361C81.5176 70.3506 81.8604 71.5166 81.8604 73.0342V73.7109H75.418C75.4414 74.6484 75.7139 75.4072 76.2354 75.9873C76.7627 76.5615 77.4307 76.8486 78.2393 76.8486C78.8135 76.8486 79.2998 76.7314 79.6982 76.4971C80.0967 76.2627 80.4453 75.9521 80.7441 75.5654L81.7373 76.3389C80.9404 77.5635 79.7451 78.1758 78.1514 78.1758ZM77.9492 69.6504C77.293 69.6504 76.7422 69.8906 76.2969 70.3711C75.8516 70.8457 75.5762 71.5137 75.4707 72.375H80.2344V72.252C80.1875 71.4258 79.9648 70.7871 79.5664 70.3359C79.168 69.8789 78.6289 69.6504 77.9492 69.6504ZM89.6211 78C89.5273 77.8125 89.4512 77.4785 89.3926 76.998C88.6367 77.7832 87.7344 78.1758 86.6855 78.1758C85.748 78.1758 84.9775 77.9121 84.374 77.3848C83.7764 76.8516 83.4775 76.1777 83.4775 75.3633C83.4775 74.373 83.8525 73.6055 84.6025 73.0605C85.3584 72.5098 86.4189 72.2344 87.7842 72.2344H89.3662V71.4873C89.3662 70.9189 89.1963 70.4678 88.8564 70.1338C88.5166 69.7939 88.0156 69.624 87.3535 69.624C86.7734 69.624 86.2871 69.7705 85.8945 70.0635C85.502 70.3564 85.3057 70.7109 85.3057 71.127H83.6709C83.6709 70.6523 83.8379 70.1953 84.1719 69.7559C84.5117 69.3105 84.9688 68.959 85.543 68.7012C86.123 68.4434 86.7588 68.3145 87.4502 68.3145C88.5459 68.3145 89.4043 68.5898 90.0254 69.1406C90.6465 69.6855 90.9688 70.4385 90.9922 71.3994V75.7764C90.9922 76.6494 91.1035 77.3438 91.3262 77.8594V78H89.6211ZM86.9229 76.7607C87.4326 76.7607 87.916 76.6289 88.373 76.3652C88.8301 76.1016 89.1611 75.7588 89.3662 75.3369V73.3857H88.0918C86.0996 73.3857 85.1035 73.9688 85.1035 75.1348C85.1035 75.6445 85.2734 76.043 85.6133 76.3301C85.9531 76.6172 86.3896 76.7607 86.9229 76.7607ZM98.1377 69.9492C97.8916 69.9082 97.625 69.8877 97.3379 69.8877C96.2715 69.8877 95.5479 70.3418 95.167 71.25V78H93.541V68.4902H95.123L95.1494 69.5889C95.6826 68.7393 96.4385 68.3145 97.417 68.3145C97.7334 68.3145 97.9736 68.3555 98.1377 68.4375V69.9492ZM105.178 75.4775C105.178 75.0381 105.011 74.6982 104.677 74.458C104.349 74.2119 103.771 74.001 102.945 73.8252C102.125 73.6494 101.472 73.4385 100.985 73.1924C100.505 72.9463 100.147 72.6533 99.9131 72.3135C99.6846 71.9736 99.5703 71.5693 99.5703 71.1006C99.5703 70.3213 99.8984 69.6621 100.555 69.123C101.217 68.584 102.061 68.3145 103.086 68.3145C104.164 68.3145 105.037 68.5928 105.705 69.1494C106.379 69.7061 106.716 70.418 106.716 71.2852H105.081C105.081 70.8398 104.891 70.4561 104.51 70.1338C104.135 69.8115 103.66 69.6504 103.086 69.6504C102.494 69.6504 102.031 69.7793 101.697 70.0371C101.363 70.2949 101.196 70.6318 101.196 71.0479C101.196 71.4404 101.352 71.7363 101.662 71.9355C101.973 72.1348 102.532 72.3252 103.341 72.5068C104.155 72.6885 104.814 72.9053 105.318 73.1572C105.822 73.4092 106.194 73.7139 106.435 74.0713C106.681 74.4229 106.804 74.8535 106.804 75.3633C106.804 76.2129 106.464 76.8955 105.784 77.4111C105.104 77.9209 104.223 78.1758 103.139 78.1758C102.377 78.1758 101.703 78.041 101.117 77.7715C100.531 77.502 100.071 77.127 99.7373 76.6465C99.4092 76.1602 99.2451 75.6357 99.2451 75.0732H100.871C100.9 75.6182 101.117 76.0518 101.521 76.374C101.932 76.6904 102.471 76.8486 103.139 76.8486C103.754 76.8486 104.246 76.7256 104.615 76.4795C104.99 76.2275 105.178 75.8936 105.178 75.4775Z" fill="black"/>
</svg>
