<svg width="150" height="150" viewBox="0 0 150 150" fill="none" xmlns="http://www.w3.org/2000/svg">
<circle cx="75" cy="75" r="67.5" stroke="#4F73EB" stroke-width="15"/>
<path d="M47.8105 73.584L48.4609 67.2031H55.0176V68.7061H49.8408L49.4541 72.1953C50.0811 71.8262 50.793 71.6416 51.5898 71.6416C52.7559 71.6416 53.6816 72.0283 54.3672 72.8018C55.0527 73.5693 55.3955 74.6094 55.3955 75.9219C55.3955 77.2402 55.0381 78.2803 54.3232 79.042C53.6143 79.7979 52.6211 80.1758 51.3438 80.1758C50.2129 80.1758 49.29 79.8623 48.5752 79.2354C47.8604 78.6084 47.4531 77.7412 47.3535 76.6338H48.8916C48.9912 77.3662 49.252 77.9199 49.6738 78.2949C50.0957 78.6641 50.6523 78.8486 51.3438 78.8486C52.0996 78.8486 52.6914 78.5908 53.1191 78.0752C53.5527 77.5596 53.7695 76.8477 53.7695 75.9395C53.7695 75.084 53.5352 74.3984 53.0664 73.8828C52.6035 73.3613 51.9854 73.1006 51.2119 73.1006C50.5029 73.1006 49.9463 73.2559 49.542 73.5664L49.1113 73.918L47.8105 73.584ZM64.9141 77.6182L67.1289 70.4902H68.8691L65.0459 81.4678C64.4541 83.0498 63.5137 83.8408 62.2246 83.8408L61.917 83.8145L61.3105 83.7002V82.3818L61.75 82.417C62.3008 82.417 62.7285 82.3057 63.0332 82.083C63.3438 81.8604 63.5986 81.4531 63.7979 80.8613L64.1582 79.8945L60.7656 70.4902H62.541L64.9141 77.6182ZM74.1514 80.1758C72.8623 80.1758 71.8135 79.7539 71.0049 78.9102C70.1963 78.0605 69.792 76.9268 69.792 75.5088V75.21C69.792 74.2666 69.9707 73.4258 70.3281 72.6875C70.6914 71.9434 71.1953 71.3633 71.8398 70.9473C72.4902 70.5254 73.1934 70.3145 73.9492 70.3145C75.1855 70.3145 76.1465 70.7217 76.832 71.5361C77.5176 72.3506 77.8604 73.5166 77.8604 75.0342V75.7109H71.418C71.4414 76.6484 71.7139 77.4072 72.2354 77.9873C72.7627 78.5615 73.4307 78.8486 74.2393 78.8486C74.8135 78.8486 75.2998 78.7314 75.6982 78.4971C76.0967 78.2627 76.4453 77.9521 76.7441 77.5654L77.7373 78.3389C76.9404 79.5635 75.7451 80.1758 74.1514 80.1758ZM73.9492 71.6504C73.293 71.6504 72.7422 71.8906 72.2969 72.3711C71.8516 72.8457 71.5762 73.5137 71.4707 74.375H76.2344V74.252C76.1875 73.4258 75.9648 72.7871 75.5664 72.3359C75.168 71.8789 74.6289 71.6504 73.9492 71.6504ZM85.6211 80C85.5273 79.8125 85.4512 79.4785 85.3926 78.998C84.6367 79.7832 83.7344 80.1758 82.6855 80.1758C81.748 80.1758 80.9775 79.9121 80.374 79.3848C79.7764 78.8516 79.4775 78.1777 79.4775 77.3633C79.4775 76.373 79.8525 75.6055 80.6025 75.0605C81.3584 74.5098 82.4189 74.2344 83.7842 74.2344H85.3662V73.4873C85.3662 72.9189 85.1963 72.4678 84.8564 72.1338C84.5166 71.7939 84.0156 71.624 83.3535 71.624C82.7734 71.624 82.2871 71.7705 81.8945 72.0635C81.502 72.3564 81.3057 72.7109 81.3057 73.127H79.6709C79.6709 72.6523 79.8379 72.1953 80.1719 71.7559C80.5117 71.3105 80.9688 70.959 81.543 70.7012C82.123 70.4434 82.7588 70.3145 83.4502 70.3145C84.5459 70.3145 85.4043 70.5898 86.0254 71.1406C86.6465 71.6855 86.9688 72.4385 86.9922 73.3994V77.7764C86.9922 78.6494 87.1035 79.3438 87.3262 79.8594V80H85.6211ZM82.9229 78.7607C83.4326 78.7607 83.916 78.6289 84.373 78.3652C84.8301 78.1016 85.1611 77.7588 85.3662 77.3369V75.3857H84.0918C82.0996 75.3857 81.1035 75.9688 81.1035 77.1348C81.1035 77.6445 81.2734 78.043 81.6133 78.3301C81.9531 78.6172 82.3896 78.7607 82.9229 78.7607ZM94.1377 71.9492C93.8916 71.9082 93.625 71.8877 93.3379 71.8877C92.2715 71.8877 91.5479 72.3418 91.167 73.25V80H89.541V70.4902H91.123L91.1494 71.5889C91.6826 70.7393 92.4385 70.3145 93.417 70.3145C93.7334 70.3145 93.9736 70.3555 94.1377 70.4375V71.9492ZM101.178 77.4775C101.178 77.0381 101.011 76.6982 100.677 76.458C100.349 76.2119 99.7715 76.001 98.9453 75.8252C98.125 75.6494 97.4717 75.4385 96.9854 75.1924C96.5049 74.9463 96.1475 74.6533 95.9131 74.3135C95.6846 73.9736 95.5703 73.5693 95.5703 73.1006C95.5703 72.3213 95.8984 71.6621 96.5547 71.123C97.2168 70.584 98.0605 70.3145 99.0859 70.3145C100.164 70.3145 101.037 70.5928 101.705 71.1494C102.379 71.7061 102.716 72.418 102.716 73.2852H101.081C101.081 72.8398 100.891 72.4561 100.51 72.1338C100.135 71.8115 99.6602 71.6504 99.0859 71.6504C98.4941 71.6504 98.0312 71.7793 97.6973 72.0371C97.3633 72.2949 97.1963 72.6318 97.1963 73.0479C97.1963 73.4404 97.3516 73.7363 97.6621 73.9355C97.9727 74.1348 98.5322 74.3252 99.3408 74.5068C100.155 74.6885 100.814 74.9053 101.318 75.1572C101.822 75.4092 102.194 75.7139 102.435 76.0713C102.681 76.4229 102.804 76.8535 102.804 77.3633C102.804 78.2129 102.464 78.8955 101.784 79.4111C101.104 79.9209 100.223 80.1758 99.1387 80.1758C98.377 80.1758 97.7031 80.041 97.1172 79.7715C96.5312 79.502 96.0713 79.127 95.7373 78.6465C95.4092 78.1602 95.2451 77.6357 95.2451 77.0732H96.8711C96.9004 77.6182 97.1172 78.0518 97.5215 78.374C97.9316 78.6904 98.4707 78.8486 99.1387 78.8486C99.7539 78.8486 100.246 78.7256 100.615 78.4795C100.99 78.2275 101.178 77.8936 101.178 77.4775Z" fill="black"/>
</svg>
