<svg width="150" height="150" viewBox="0 0 150 150" fill="none" xmlns="http://www.w3.org/2000/svg">
<path d="M150 75C150 116.421 116.421 150 75 150C33.5786 150 0 116.421 0 75C0 33.5786 33.5786 0 75 0C116.421 0 150 33.5786 150 75ZM16.7165 75C16.7165 107.189 42.8109 133.283 75 133.283C107.189 133.283 133.283 107.189 133.283 75C133.283 42.8109 107.189 16.7165 75 16.7165C42.8109 16.7165 16.7165 42.8109 16.7165 75Z" fill="#C4C4C4"/>
<path d="M150 75C150 116.421 116.421 150 75 150C33.5786 150 0 116.421 0 75C0 33.5786 33.5786 0 75 0C116.421 0 150 33.5786 150 75ZM16.7165 75C16.7165 107.189 42.8109 133.283 75 133.283C107.189 133.283 133.283 107.189 133.283 75C133.283 42.8109 107.189 16.7165 75 16.7165C42.8109 16.7165 16.7165 42.8109 16.7165 75Z" fill="#4F73EB"/>
<path d="M56.4072 78H54.7725V67.1631L51.4941 68.3672V66.8906L56.1523 65.1416H56.4072V78ZM68.9141 75.6182L71.1289 68.4902H72.8691L69.0459 79.4678C68.4541 81.0498 67.5137 81.8408 66.2246 81.8408L65.917 81.8145L65.3105 81.7002V80.3818L65.75 80.417C66.3008 80.417 66.7285 80.3057 67.0332 80.083C67.3438 79.8604 67.5986 79.4531 67.7979 78.8613L68.1582 77.8945L64.7656 68.4902H66.541L68.9141 75.6182ZM78.1514 78.1758C76.8623 78.1758 75.8135 77.7539 75.0049 76.9102C74.1963 76.0605 73.792 74.9268 73.792 73.5088V73.21C73.792 72.2666 73.9707 71.4258 74.3281 70.6875C74.6914 69.9434 75.1953 69.3633 75.8398 68.9473C76.4902 68.5254 77.1934 68.3145 77.9492 68.3145C79.1855 68.3145 80.1465 68.7217 80.832 69.5361C81.5176 70.3506 81.8604 71.5166 81.8604 73.0342V73.7109H75.418C75.4414 74.6484 75.7139 75.4072 76.2354 75.9873C76.7627 76.5615 77.4307 76.8486 78.2393 76.8486C78.8135 76.8486 79.2998 76.7314 79.6982 76.4971C80.0967 76.2627 80.4453 75.9521 80.7441 75.5654L81.7373 76.3389C80.9404 77.5635 79.7451 78.1758 78.1514 78.1758ZM77.9492 69.6504C77.293 69.6504 76.7422 69.8906 76.2969 70.3711C75.8516 70.8457 75.5762 71.5137 75.4707 72.375H80.2344V72.252C80.1875 71.4258 79.9648 70.7871 79.5664 70.3359C79.168 69.8789 78.6289 69.6504 77.9492 69.6504ZM89.6211 78C89.5273 77.8125 89.4512 77.4785 89.3926 76.998C88.6367 77.7832 87.7344 78.1758 86.6855 78.1758C85.748 78.1758 84.9775 77.9121 84.374 77.3848C83.7764 76.8516 83.4775 76.1777 83.4775 75.3633C83.4775 74.373 83.8525 73.6055 84.6025 73.0605C85.3584 72.5098 86.4189 72.2344 87.7842 72.2344H89.3662V71.4873C89.3662 70.9189 89.1963 70.4678 88.8564 70.1338C88.5166 69.7939 88.0156 69.624 87.3535 69.624C86.7734 69.624 86.2871 69.7705 85.8945 70.0635C85.502 70.3564 85.3057 70.7109 85.3057 71.127H83.6709C83.6709 70.6523 83.8379 70.1953 84.1719 69.7559C84.5117 69.3105 84.9688 68.959 85.543 68.7012C86.123 68.4434 86.7588 68.3145 87.4502 68.3145C88.5459 68.3145 89.4043 68.5898 90.0254 69.1406C90.6465 69.6855 90.9688 70.4385 90.9922 71.3994V75.7764C90.9922 76.6494 91.1035 77.3438 91.3262 77.8594V78H89.6211ZM86.9229 76.7607C87.4326 76.7607 87.916 76.6289 88.373 76.3652C88.8301 76.1016 89.1611 75.7588 89.3662 75.3369V73.3857H88.0918C86.0996 73.3857 85.1035 73.9688 85.1035 75.1348C85.1035 75.6445 85.2734 76.043 85.6133 76.3301C85.9531 76.6172 86.3896 76.7607 86.9229 76.7607ZM98.1377 69.9492C97.8916 69.9082 97.625 69.8877 97.3379 69.8877C96.2715 69.8877 95.5479 70.3418 95.167 71.25V78H93.541V68.4902H95.123L95.1494 69.5889C95.6826 68.7393 96.4385 68.3145 97.417 68.3145C97.7334 68.3145 97.9736 68.3555 98.1377 68.4375V69.9492Z" fill="black"/>
</svg>
